<svg width="282" height="37" viewBox="0 0 282 37" fill="none" xmlns="http://www.w3.org/2000/svg">
<path d="M15.976 12.528C19.288 15.84 19.288 21.216 15.976 24.528C12.64 27.84 7.264 27.84 3.952 24.528C0.64 21.216 0.64 15.84 3.952 12.528C7.264 9.192 12.664 9.192 15.976 12.528ZM15.856 24.432C18.688 21.576 17.368 17.448 14.128 14.184C10.864 10.92 6.904 9.792 4.072 12.648C1.24 15.48 2.608 20.016 5.872 23.28C9.112 26.52 13.024 27.264 15.856 24.432ZM24.4971 20.4C26.0331 21.096 27.8571 21.912 27.8571 23.976C27.8571 26.016 26.1051 27.288 23.5851 27.288C22.2651 27.288 20.7771 26.952 19.4571 26.04L20.2251 24.144C21.2091 25.152 21.9531 27.12 23.6571 27.12C25.5531 27.12 26.8251 26.28 26.8731 24.744C26.9211 23.568 25.1931 22.848 23.7531 22.2L22.8411 21.792C21.2091 21.048 19.7211 19.56 19.7211 17.616C19.7211 15.792 21.3771 14.712 23.5371 14.712C24.9771 14.712 26.4411 15.144 27.4011 15.72L26.3211 18.12C25.5291 17.472 24.9051 14.856 23.4171 14.856C21.6411 14.856 20.6811 16.08 20.6811 17.28C20.6811 18.792 22.3611 19.44 23.5851 19.992L24.4971 20.4ZM33.919 20.4C35.455 21.096 37.279 21.912 37.279 23.976C37.279 26.016 35.527 27.288 33.007 27.288C31.687 27.288 30.199 26.952 28.879 26.04L29.647 24.144C30.631 25.152 31.375 27.12 33.079 27.12C34.975 27.12 36.247 26.28 36.295 24.744C36.343 23.568 34.615 22.848 33.175 22.2L32.263 21.792C30.631 21.048 29.143 19.56 29.143 17.616C29.143 15.792 30.799 14.712 32.959 14.712C34.399 14.712 35.863 15.144 36.823 15.72L35.743 18.12C34.951 17.472 34.327 14.856 32.839 14.856C31.063 14.856 30.103 16.08 30.103 17.28C30.103 18.792 31.783 19.44 33.007 19.992L33.919 20.4ZM49.0529 16.44C50.2529 17.64 50.9009 19.224 50.9009 20.904C50.9009 22.584 50.2529 24.168 49.0529 25.344C47.8769 26.544 46.2929 27.192 44.6129 27.192C42.9329 27.192 41.3489 26.544 40.1489 25.344C37.7009 22.896 37.7009 18.888 40.1489 16.44C42.6209 13.992 46.6049 13.992 49.0529 16.44ZM48.8369 25.128C49.7969 24.144 49.8449 22.8 49.7009 21.336C49.5809 19.848 48.8849 18.432 47.7569 17.28C46.4609 15.984 44.8289 15.312 43.2929 15.312C42.0449 15.312 41.2769 15.768 40.3889 16.68C38.3729 18.696 39.1169 21.84 41.4929 24.192C43.8689 26.568 46.8209 27.144 48.8369 25.128ZM59.0841 26.16L59.2521 26.448C58.3881 26.952 57.5721 27.288 56.4921 27.288C53.7801 27.288 52.8921 25.08 52.8921 24.264L52.8681 15.336L51.0681 15.936L50.9001 15L52.7481 14.976L54.7881 11.376H54.8841V14.976H59.1321L58.5561 16.104L54.8841 15.36V24.072C54.8841 24.792 54.9081 27 57.0201 27C57.5721 27 58.2681 26.592 59.0841 26.16ZM67.1817 14.712C69.6777 14.712 70.9737 16.056 70.9737 18.984V27H69.0057V19.152C69.0057 18.144 69.6057 15.192 66.4377 15.192C64.9497 15.192 63.8217 15.912 62.4297 17.232V27H60.5097V15.264L62.3337 14.808H62.4297V16.8C63.9177 15.432 65.3577 14.712 67.1817 14.712ZM83.2962 26.664C83.4162 26.664 83.5602 26.64 83.7042 26.616V26.76C83.2722 27.024 82.8162 27.168 82.3842 27.168C81.2562 27.168 80.1042 26.064 80.0562 25.44C78.7602 26.616 77.0322 27.24 75.5442 27.24C73.7202 27.24 72.4002 26.256 72.4002 24.528C72.4002 22.344 74.5362 21.12 77.6562 20.76C78.4722 20.664 79.2882 20.592 80.0562 20.544V19.176C80.0562 16.584 79.0482 15.312 76.9362 15.312C75.6402 15.312 74.5842 15.768 73.4322 16.752L73.2402 16.512C74.4882 15.36 76.7202 14.784 78.3762 14.784C80.8482 14.784 82.1442 16.128 82.1442 19.056V24.936C82.1442 26.04 82.1442 26.664 83.2962 26.664ZM80.0562 25.008V21.12C76.8402 21 73.7202 21.24 73.8882 23.688C74.0082 25.488 75.0882 26.304 76.5762 26.304C77.8482 26.304 78.9282 26.088 80.0562 25.008ZM91.5501 28.176H90.9981V8.688H91.5501V28.176ZM107.444 8.808C105.5 8.808 104.492 10.032 104.492 12.72V14.928H108.764L108.428 15.696L104.516 15.456L104.492 27.024H103.388L103.412 15.456L101.396 15.696V14.928H103.388V12.528C103.388 9.672 104.708 8.256 107.012 8.256C108.068 8.256 109.148 8.496 110.204 9.048L110.084 9.336C108.908 8.856 108.116 8.808 107.444 8.808ZM120.372 24.984L120.876 26.736L119.868 27.192L119.268 25.224V25.104C117.996 26.4 116.268 27.288 114.564 27.288C112.044 27.288 110.772 25.92 110.772 22.992V15.216L111.78 14.736H111.876V22.824C111.876 23.832 111.876 26.688 115.044 26.688C116.484 26.688 118.164 25.824 119.268 24.552V15.216L120.276 14.736H120.372V24.984ZM124.955 8.328H125.051V27.024H123.947V8.808L124.955 8.328ZM133.437 8.808C131.493 8.808 130.485 10.032 130.485 12.72V14.928H134.757L134.421 15.696L130.509 15.456L130.485 27.024H129.381L129.405 15.456L127.389 15.696V14.928H129.381V12.528C129.381 9.672 130.701 8.256 133.005 8.256C134.061 8.256 135.141 8.496 136.197 9.048L136.077 9.336C134.901 8.856 134.109 8.808 133.437 8.808ZM136.884 15.216L137.892 14.736H137.988V27.024H136.884V15.216ZM137.964 11.808C137.676 12.12 137.196 12.12 136.908 11.808C136.596 11.52 136.596 11.064 136.908 10.752C137.196 10.464 137.676 10.464 137.964 10.752C138.252 11.064 138.252 11.52 137.964 11.808ZM142.486 8.328H142.582V27.024H141.478V8.808L142.486 8.328ZM160.064 14.664C162.56 14.664 163.856 16.008 163.856 18.936V27.024H162.752V19.128C162.752 18.12 162.776 15.096 159.584 15.096C158.048 15.096 156.8 15.912 155.36 17.376C155.456 17.832 155.504 18.336 155.504 18.936V27.024H154.4V19.128C154.4 18.12 154.424 15.096 151.232 15.096C149.744 15.096 148.544 15.864 147.176 17.184V27H146.072V15.216L147.08 14.736H147.176V16.752C148.616 15.36 149.888 14.664 151.712 14.664C153.584 14.664 154.76 15.384 155.264 16.968C156.8 15.456 158.144 14.664 160.064 14.664ZM176.956 25.104C177.1 24.984 177.22 24.84 177.34 24.696H177.748C177.58 24.912 177.388 25.128 177.196 25.344C176.02 26.496 174.46 27.144 172.804 27.144C171.148 27.144 169.588 26.496 168.412 25.344C165.988 22.92 165.988 18.984 168.412 16.56C169.708 15.264 171.1 14.616 172.468 14.64C172.516 14.64 172.54 14.64 172.564 14.64C172.612 14.64 172.636 14.64 172.66 14.64C172.708 14.64 172.78 14.664 172.828 14.664C172.828 14.664 172.828 14.664 172.852 14.664C175.228 14.88 176.764 16.608 176.932 19.464C176.932 19.608 176.932 19.728 176.932 19.848H167.308C167.236 21.432 167.908 23.136 169.252 24.48C171.58 26.832 174.988 27.096 176.956 25.104ZM168.652 16.776C167.908 17.52 167.476 18.48 167.356 19.464H175.708C175.708 19.416 175.708 19.368 175.708 19.32V19.296C175.708 19.152 175.684 19.008 175.66 18.864C175.66 18.84 175.66 18.816 175.66 18.792C175.228 15.192 171.94 15.456 171.94 15.456C170.716 15.456 169.54 15.888 168.652 16.776ZM186.193 14.664C188.713 14.664 190.009 16.008 190.009 18.936V27.024H188.905V19.128C188.905 18.12 188.929 15.096 185.737 15.096C184.249 15.096 182.833 15.864 181.441 17.184V27H180.337V15.216L181.345 14.736H181.441V16.752C182.929 15.36 184.393 14.664 186.193 14.664ZM199.301 26.16L199.493 26.424C198.605 26.952 197.789 27.288 196.685 27.288C193.973 27.288 193.973 25.08 193.973 24.24L193.949 15.288L191.981 15.552V14.928H193.829L194.981 11.304H195.077V14.928H199.349L199.013 15.552L195.101 15.288L195.077 24.072C195.077 24.768 195.101 27 197.213 27C197.789 27 198.485 26.592 199.301 26.16ZM213.557 20.376C215.093 21.072 216.941 21.888 216.941 23.976C216.941 26.016 215.165 27.288 212.621 27.288C211.325 27.288 209.813 26.952 208.493 26.04L209.069 24.672C210.053 25.656 211.013 27.12 212.717 27.12C214.613 27.12 216.005 25.872 216.005 24.336C216.005 22.776 214.565 22.128 213.125 21.48L212.189 21.072C210.557 20.328 208.757 19.512 208.757 17.592C208.757 15.744 210.413 14.664 212.573 14.664C214.037 14.664 215.501 15.096 216.485 15.672L215.981 16.896C215.189 16.224 213.965 14.808 212.477 14.808C210.701 14.808 209.717 16.032 209.717 17.232C209.717 18.768 211.421 19.416 212.621 19.968L213.557 20.376ZM228.207 14.904H228.663L224.295 26.64L224.175 26.928L224.127 27.12L224.103 27.168L224.079 27.192L223.335 28.944C222.279 31.56 219.327 32.376 217.359 32.376L217.503 31.032C217.791 31.104 218.127 31.128 218.367 31.128C219.447 31.128 222.135 30.84 222.903 28.944L223.719 26.856L218.511 14.904H219.711L224.295 25.44L224.271 25.608L228.207 14.904ZM235.33 20.376C236.866 21.072 238.714 21.888 238.714 23.976C238.714 26.016 236.938 27.288 234.394 27.288C233.098 27.288 231.586 26.952 230.266 26.04L230.842 24.672C231.826 25.656 232.786 27.12 234.49 27.12C236.386 27.12 237.778 25.872 237.778 24.336C237.778 22.776 236.338 22.128 234.898 21.48L233.962 21.072C232.33 20.328 230.53 19.512 230.53 17.592C230.53 15.744 232.186 14.664 234.346 14.664C235.81 14.664 237.274 15.096 238.258 15.672L237.754 16.896C236.962 16.224 235.738 14.808 234.25 14.808C232.474 14.808 231.49 16.032 231.49 17.232C231.49 18.768 233.194 19.416 234.394 19.968L235.33 20.376ZM247.653 26.16L247.845 26.424C246.957 26.952 246.141 27.288 245.037 27.288C242.325 27.288 242.325 25.08 242.325 24.24L242.301 15.288L240.333 15.552V14.928H242.181L243.333 11.304H243.429V14.928H247.701L247.365 15.552L243.453 15.288L243.429 24.072C243.429 24.768 243.453 27 245.565 27C246.141 27 246.837 26.592 247.653 26.16ZM259.011 25.104C259.155 24.984 259.275 24.84 259.395 24.696H259.803C259.635 24.912 259.443 25.128 259.251 25.344C258.075 26.496 256.515 27.144 254.859 27.144C253.203 27.144 251.643 26.496 250.467 25.344C248.043 22.92 248.043 18.984 250.467 16.56C251.763 15.264 253.155 14.616 254.523 14.64C254.571 14.64 254.595 14.64 254.618 14.64C254.667 14.64 254.691 14.64 254.715 14.64C254.763 14.64 254.835 14.664 254.883 14.664C254.883 14.664 254.883 14.664 254.907 14.664C257.283 14.88 258.819 16.608 258.987 19.464C258.987 19.608 258.987 19.728 258.987 19.848H249.363C249.291 21.432 249.963 23.136 251.307 24.48C253.635 26.832 257.043 27.096 259.011 25.104ZM250.707 16.776C249.963 17.52 249.531 18.48 249.411 19.464H257.763C257.763 19.416 257.763 19.368 257.763 19.32V19.296C257.763 19.152 257.739 19.008 257.715 18.864C257.715 18.84 257.715 18.816 257.715 18.792C257.283 15.192 253.995 15.456 253.995 15.456C252.771 15.456 251.595 15.888 250.707 16.776ZM276.384 14.664C278.88 14.664 280.176 16.008 280.176 18.936V27.024H279.072V19.128C279.072 18.12 279.096 15.096 275.904 15.096C274.368 15.096 273.12 15.912 271.68 17.376C271.776 17.832 271.824 18.336 271.824 18.936V27.024H270.72V19.128C270.72 18.12 270.744 15.096 267.552 15.096C266.064 15.096 264.864 15.864 263.496 17.184V27H262.392V15.216L263.4 14.736H263.496V16.752C264.936 15.36 266.208 14.664 268.032 14.664C269.904 14.664 271.08 15.384 271.584 16.968C273.12 15.456 274.464 14.664 276.384 14.664Z" fill="white"/>
</svg>
