<svg width="154" height="243" viewBox="0 0 154 243" fill="none" xmlns="http://www.w3.org/2000/svg">
<path fill-rule="evenodd" clip-rule="evenodd" d="M136.32 10H16.25C12.7982 10 10 12.7982 10 16.25V225.9C10 229.352 12.7982 232.15 16.25 232.15H59V231.4H16.25C13.2124 231.4 10.75 228.938 10.75 225.9V16.25C10.75 13.2124 13.2124 10.75 16.25 10.75H136.32C139.358 10.75 141.82 13.2124 141.82 16.25V225.9C141.82 228.938 139.358 231.4 136.32 231.4H93.57V232.15H136.32C139.772 232.15 142.57 229.352 142.57 225.9V16.25C142.57 12.7982 139.772 10 136.32 10Z" fill="#FAFAFA"/>
<path d="M68.7784 229.278C69.7444 230.244 69.7444 231.812 68.7784 232.778C67.8054 233.744 66.2374 233.744 65.2714 232.778C64.3054 231.812 64.3054 230.244 65.2714 229.278C66.2374 228.305 67.8124 228.305 68.7784 229.278ZM68.7434 232.75C69.5694 231.917 69.1844 230.713 68.2394 229.761C67.2874 228.809 66.1324 228.48 65.3064 229.313C64.4804 230.139 64.8794 231.462 65.8314 232.414C66.7764 233.359 67.9174 233.576 68.7434 232.75ZM71.2638 231.574C71.7118 231.777 72.2438 232.015 72.2438 232.617C72.2438 233.212 71.7328 233.583 70.9978 233.583C70.6128 233.583 70.1788 233.485 69.7938 233.219L70.0178 232.666C70.3048 232.96 70.5218 233.534 71.0188 233.534C71.5718 233.534 71.9428 233.289 71.9568 232.841C71.9708 232.498 71.4668 232.288 71.0468 232.099L70.7808 231.98C70.3048 231.763 69.8708 231.329 69.8708 230.762C69.8708 230.23 70.3538 229.915 70.9838 229.915C71.4038 229.915 71.8308 230.041 72.1108 230.209L71.7958 230.909C71.5648 230.72 71.3828 229.957 70.9488 229.957C70.4308 229.957 70.1508 230.314 70.1508 230.664C70.1508 231.105 70.6408 231.294 70.9978 231.455L71.2638 231.574ZM74.0118 231.574C74.4598 231.777 74.9918 232.015 74.9918 232.617C74.9918 233.212 74.4808 233.583 73.7458 233.583C73.3608 233.583 72.9268 233.485 72.5418 233.219L72.7658 232.666C73.0528 232.96 73.2698 233.534 73.7668 233.534C74.3198 233.534 74.6908 233.289 74.7048 232.841C74.7188 232.498 74.2148 232.288 73.7948 232.099L73.5288 231.98C73.0528 231.763 72.6188 231.329 72.6188 230.762C72.6188 230.23 73.1018 229.915 73.7318 229.915C74.1518 229.915 74.5788 230.041 74.8588 230.209L74.5438 230.909C74.3128 230.72 74.1308 229.957 73.6968 229.957C73.1788 229.957 72.8988 230.314 72.8988 230.664C72.8988 231.105 73.3888 231.294 73.7458 231.455L74.0118 231.574ZM78.4259 230.419C78.7759 230.769 78.9649 231.231 78.9649 231.721C78.9649 232.211 78.7759 232.673 78.4259 233.016C78.0829 233.366 77.6209 233.555 77.1309 233.555C76.6409 233.555 76.1789 233.366 75.8289 233.016C75.1149 232.302 75.1149 231.133 75.8289 230.419C76.5499 229.705 77.7119 229.705 78.4259 230.419ZM78.3629 232.953C78.6429 232.666 78.6569 232.274 78.6149 231.847C78.5799 231.413 78.3769 231 78.0479 230.664C77.6699 230.286 77.1939 230.09 76.7459 230.09C76.3819 230.09 76.1579 230.223 75.8989 230.489C75.3109 231.077 75.5279 231.994 76.2209 232.68C76.9139 233.373 77.7749 233.541 78.3629 232.953ZM81.3516 233.254L81.4006 233.338C81.1486 233.485 80.9106 233.583 80.5956 233.583C79.8046 233.583 79.5456 232.939 79.5456 232.701L79.5386 230.097L79.0136 230.272L78.9646 229.999L79.5036 229.992L80.0986 228.942H80.1266V229.992H81.3656L81.1976 230.321L80.1266 230.104V232.645C80.1266 232.855 80.1336 233.499 80.7496 233.499C80.9106 233.499 81.1136 233.38 81.3516 233.254ZM83.7134 229.915C84.4414 229.915 84.8194 230.307 84.8194 231.161V233.499H84.2454V231.21C84.2454 230.916 84.4204 230.055 83.4964 230.055C83.0624 230.055 82.7334 230.265 82.3274 230.65V233.499H81.7674V230.076L82.2994 229.943H82.3274V230.524C82.7614 230.125 83.1814 229.915 83.7134 229.915ZM88.4135 233.401C88.4485 233.401 88.4905 233.394 88.5325 233.387V233.429C88.4065 233.506 88.2735 233.548 88.1475 233.548C87.8185 233.548 87.4825 233.226 87.4685 233.044C87.0905 233.387 86.5865 233.569 86.1525 233.569C85.6205 233.569 85.2355 233.282 85.2355 232.778C85.2355 232.141 85.8585 231.784 86.7685 231.679C87.0065 231.651 87.2445 231.63 87.4685 231.616V231.217C87.4685 230.461 87.1745 230.09 86.5585 230.09C86.1805 230.09 85.8725 230.223 85.5365 230.51L85.4805 230.44C85.8445 230.104 86.4955 229.936 86.9785 229.936C87.6995 229.936 88.0775 230.328 88.0775 231.182V232.897C88.0775 233.219 88.0775 233.401 88.4135 233.401ZM87.4685 232.918V231.784C86.5305 231.749 85.6205 231.819 85.6695 232.533C85.7045 233.058 86.0195 233.296 86.4535 233.296C86.8245 233.296 87.1395 233.233 87.4685 232.918Z" fill="#FAFAFA"/>
</svg>
