<svg width="154" height="243" viewBox="0 0 154 243" fill="none" xmlns="http://www.w3.org/2000/svg">
<path d="M61.0646 29.9048C62.9966 31.8368 62.9966 34.9728 61.0646 36.9048C59.1186 38.8368 55.9826 38.8368 54.0506 36.9048C52.1186 34.9728 52.1186 31.8368 54.0506 29.9048C55.9826 27.9588 59.1326 27.9588 61.0646 29.9048ZM60.9946 36.8488C62.6466 35.1828 61.8766 32.7748 59.9866 30.8708C58.0826 28.9668 55.7726 28.3088 54.1206 29.9748C52.4686 31.6268 53.2666 34.2728 55.1706 36.1768C57.0606 38.0668 59.3426 38.5008 60.9946 36.8488ZM66.0353 34.4968C66.9313 34.9028 67.9953 35.3788 67.9953 36.5828C67.9953 37.7728 66.9733 38.5148 65.5033 38.5148C64.7333 38.5148 63.8653 38.3188 63.0953 37.7868L63.5433 36.6808C64.1173 37.2688 64.5513 38.4168 65.5453 38.4168C66.6513 38.4168 67.3933 37.9268 67.4213 37.0308C67.4493 36.3448 66.4413 35.9248 65.6013 35.5468L65.0693 35.3088C64.1173 34.8748 63.2493 34.0068 63.2493 32.8728C63.2493 31.8088 64.2153 31.1788 65.4753 31.1788C66.3153 31.1788 67.1693 31.4308 67.7293 31.7668L67.0993 33.1668C66.6373 32.7888 66.2733 31.2628 65.4053 31.2628C64.3693 31.2628 63.8093 31.9768 63.8093 32.6768C63.8093 33.5588 64.7893 33.9368 65.5033 34.2588L66.0353 34.4968ZM71.5314 34.4968C72.4274 34.9028 73.4914 35.3788 73.4914 36.5828C73.4914 37.7728 72.4694 38.5148 70.9994 38.5148C70.2294 38.5148 69.3614 38.3188 68.5914 37.7868L69.0394 36.6808C69.6134 37.2688 70.0474 38.4168 71.0414 38.4168C72.1474 38.4168 72.8894 37.9268 72.9174 37.0308C72.9454 36.3448 71.9374 35.9248 71.0974 35.5468L70.5654 35.3088C69.6134 34.8748 68.7454 34.0068 68.7454 32.8728C68.7454 31.8088 69.7114 31.1788 70.9714 31.1788C71.8114 31.1788 72.6654 31.4308 73.2254 31.7668L72.5954 33.1668C72.1334 32.7888 71.7694 31.2628 70.9014 31.2628C69.8654 31.2628 69.3054 31.9768 69.3054 32.6768C69.3054 33.5588 70.2854 33.9368 70.9994 34.2588L71.5314 34.4968ZM80.3594 32.1868C81.0594 32.8868 81.4374 33.8108 81.4374 34.7908C81.4374 35.7708 81.0594 36.6948 80.3594 37.3808C79.6734 38.0808 78.7494 38.4588 77.7694 38.4588C76.7894 38.4588 75.8654 38.0808 75.1654 37.3808C73.7374 35.9528 73.7374 33.6148 75.1654 32.1868C76.6074 30.7588 78.9314 30.7588 80.3594 32.1868ZM80.2334 37.2548C80.7934 36.6808 80.8214 35.8968 80.7374 35.0428C80.6674 34.1748 80.2614 33.3488 79.6034 32.6768C78.8474 31.9208 77.8954 31.5288 76.9994 31.5288C76.2714 31.5288 75.8234 31.7948 75.3054 32.3268C74.1294 33.5028 74.5634 35.3368 75.9494 36.7088C77.3354 38.0948 79.0574 38.4308 80.2334 37.2548ZM86.211 37.8568L86.309 38.0248C85.805 38.3188 85.329 38.5148 84.699 38.5148C83.117 38.5148 82.599 37.2268 82.599 36.7508L82.585 31.5428L81.535 31.8928L81.437 31.3468L82.515 31.3328L83.705 29.2328H83.761V31.3328H86.239L85.903 31.9908L83.761 31.5568V36.6388C83.761 37.0588 83.775 38.3468 85.007 38.3468C85.329 38.3468 85.735 38.1088 86.211 37.8568ZM90.9346 31.1788C92.3906 31.1788 93.1466 31.9628 93.1466 33.6708V38.3468H91.9986V33.7688C91.9986 33.1808 92.3486 31.4588 90.5006 31.4588C89.6326 31.4588 88.9746 31.8788 88.1626 32.6488V38.3468H87.0426V31.5008L88.1066 31.2348H88.1626V32.3968C89.0306 31.5988 89.8706 31.1788 90.9346 31.1788ZM100.334 38.1508C100.404 38.1508 100.488 38.1368 100.572 38.1228V38.2068C100.32 38.3608 100.054 38.4448 99.8027 38.4448C99.1447 38.4448 98.4727 37.8008 98.4447 37.4368C97.6887 38.1228 96.6807 38.4868 95.8127 38.4868C94.7487 38.4868 93.9787 37.9128 93.9787 36.9048C93.9787 35.6308 95.2247 34.9168 97.0447 34.7068C97.5207 34.6508 97.9967 34.6088 98.4447 34.5808V33.7828C98.4447 32.2708 97.8567 31.5288 96.6247 31.5288C95.8687 31.5288 95.2527 31.7948 94.5807 32.3688L94.4687 32.2288C95.1967 31.5568 96.4987 31.2208 97.4647 31.2208C98.9067 31.2208 99.6627 32.0048 99.6627 33.7128V37.1428C99.6627 37.7868 99.6627 38.1508 100.334 38.1508ZM98.4447 37.1848V34.9168C96.5687 34.8468 94.7487 34.9868 94.8467 36.4148C94.9167 37.4648 95.5467 37.9408 96.4147 37.9408C97.1567 37.9408 97.7867 37.8148 98.4447 37.1848Z" fill="#FAFAFA"/>
<path d="M25.5118 208.255H127.559C132.463 208.255 136.438 212.23 136.438 217.134V217.134C136.438 222.038 132.463 226.013 127.559 226.013H25.5118C20.608 226.013 16.6328 222.038 16.6328 217.134V217.134C16.6328 212.23 20.608 208.255 25.5118 208.255Z" stroke="#FAFAFA" stroke-width="0.75"/>
<path d="M25.7627 220.782C25.5816 220.504 25.4205 220.202 25.2794 219.876C25.1383 219.549 25.0247 219.214 24.9387 218.869H23.336C23.5886 219.363 23.9202 219.774 24.3309 220.103C24.7415 220.432 25.2188 220.659 25.7627 220.782ZM23.0389 218.16H24.7951C24.7655 217.985 24.744 217.813 24.7306 217.644C24.7173 217.475 24.7107 217.305 24.7107 217.134C24.7107 216.962 24.7173 216.792 24.7306 216.624C24.744 216.455 24.7655 216.283 24.7951 216.107H23.0389C22.9935 216.268 22.9587 216.434 22.9344 216.608C22.9102 216.781 22.8981 216.956 22.8981 217.134C22.8981 217.311 22.9102 217.487 22.9344 217.66C22.9587 217.833 22.9935 218 23.0389 218.16ZM23.336 215.398H24.9387C25.0186 215.051 25.1307 214.711 25.2749 214.38C25.419 214.049 25.5816 213.751 25.7627 213.485C25.234 213.602 24.7597 213.828 24.34 214.162C23.9202 214.496 23.5856 214.908 23.336 215.398ZM25.6664 215.398H27.6888C27.5853 215.013 27.4511 214.657 27.2864 214.332C27.1216 214.006 26.9187 213.684 26.6776 213.364C26.4366 213.672 26.2352 213.988 26.0734 214.314C25.9117 214.639 25.776 215 25.6664 215.398ZM28.4166 215.398H30.0193C29.7697 214.908 29.4351 214.495 29.0153 214.16C28.5955 213.824 28.1213 213.599 27.5925 213.485C27.7585 213.748 27.9135 214.045 28.0577 214.376C28.2018 214.707 28.3215 215.048 28.4166 215.398ZM26.6776 221.622C26.0622 221.622 25.4815 221.504 24.9355 221.268C24.3895 221.032 23.9133 220.711 23.5068 220.304C23.1004 219.898 22.7792 219.422 22.5433 218.876C22.3074 218.33 22.1895 217.749 22.1895 217.134C22.1895 216.513 22.3074 215.932 22.5433 215.388C22.7792 214.844 23.1004 214.369 23.5068 213.963C23.9133 213.556 24.3895 213.235 24.9355 212.999C25.4815 212.763 26.0622 212.646 26.6776 212.646C27.2979 212.646 27.8798 212.763 28.4234 212.999C28.967 213.235 29.442 213.556 29.8484 213.963C30.2548 214.369 30.576 214.844 30.8119 215.388C31.0478 215.932 31.1658 216.513 31.1658 217.134C31.1658 217.215 31.1638 217.299 31.1599 217.384C31.156 217.468 31.1485 217.552 31.1376 217.633H30.4172C30.4329 217.552 30.4435 217.47 30.449 217.387C30.4544 217.305 30.4572 217.22 30.4572 217.134C30.4572 216.956 30.445 216.781 30.4208 216.608C30.3966 216.434 30.3618 216.268 30.3163 216.107H28.5601C28.5898 216.283 28.6113 216.455 28.6246 216.624C28.6379 216.792 28.6446 216.962 28.6446 217.134C28.6446 217.22 28.6438 217.304 28.6423 217.385C28.6408 217.466 28.6361 217.549 28.6283 217.633H27.9196C27.9275 217.552 27.9322 217.47 27.9337 217.387C27.9352 217.305 27.936 217.22 27.936 217.134C27.936 216.956 27.9293 216.785 27.916 216.619C27.9027 216.453 27.8811 216.283 27.8515 216.107H25.5038C25.4741 216.283 25.4526 216.453 25.4393 216.619C25.426 216.785 25.4193 216.956 25.4193 217.134C25.4193 217.311 25.426 217.483 25.4393 217.648C25.4526 217.814 25.4741 217.985 25.5038 218.16H27.1773V218.869H25.6664C25.776 219.264 25.914 219.628 26.0803 219.961C26.2465 220.293 26.4456 220.608 26.6776 220.903C26.7703 220.78 26.8575 220.655 26.9393 220.526C27.0211 220.398 27.1004 220.267 27.1773 220.133V221.594C27.0956 221.605 27.0135 221.612 26.9311 221.616C26.8487 221.62 26.7642 221.622 26.6776 221.622ZM30.4335 221.395L28.9217 219.883V221.102H28.2131V218.669H30.6461V219.378H29.415L30.9269 220.89L30.4335 221.395Z" fill="#FAFAFA"/>
</svg>
